<svg id="Layer_1" data-name="Layer 1" xmlns="http://www.w3.org/2000/svg" viewBox="0 0 226.47 34.05"><defs><style>.cls-1{fill:#fff;}.cls-2{fill:#000105;}.cls-3{fill:#fff243;}</style></defs><path class="cls-1" d="M577.3,840.68,589,807.57l132.75-.09L710,840.59Z" transform="translate(-495.27 -806.64)"/><path class="cls-2" d="M623.16,813.93h7.67l-7.36,20.52H615.8l2.45-6.83H597.72l-2.45,6.83H587.6L595,813.93h7.67l-2.45,6.83h20.53Z" transform="translate(-495.27 -806.64)"/><path class="cls-2" d="M663.05,813.93h7.67l-5.87,16.33a5.79,5.79,0,0,1-5.72,4.19H631c-2.71,0-3.68-1.49-2.71-4.19l5.86-16.33h7.67l-4.92,13.69h21.24Z" transform="translate(-495.27 -806.64)"/><path class="cls-2" d="M708.19,820.56a6.09,6.09,0,0,1-3.1,3.63c.94.68,1.12,1.91.49,3.64l-.87,2.43a5.83,5.83,0,0,1-5.72,4.19H666.66L674,813.93h32.33c2.71,0,3.68,1.5,2.71,4.19Zm-10.68,8.38.85-2.34H677.15l-.84,2.34Zm-17.79-9.5-.85,2.35h21.21l.84-2.35Z" transform="translate(-495.27 -806.64)"/><path class="cls-3" d="M495.27,840.69l12.09-34.05h71.35l-12.09,34.05Zm13.13-32.58-11,31.11h68.22l11-31.11Z" transform="translate(-495.27 -806.64)"/><polygon class="cls-3" points="15.87 5.6 7.76 28.47 17.19 28.46 25.3 5.59 15.87 5.6"/><polygon class="cls-3" points="75.68 5.6 66.38 5.61 58.27 28.48 67.57 28.48 75.68 5.6"/><polygon class="cls-3" points="43.01 5.59 33.7 5.59 30.81 13.73 35.37 27.15 43.01 5.59"/><polygon class="cls-3" points="64.74 5.59 55.43 5.6 52.54 13.73 57.1 27.16 64.74 5.59"/><polygon class="cls-3" points="21.86 19.91 24.77 28.46 34.14 28.46 26.62 6.48 21.86 19.91"/><polygon class="cls-3" points="44.63 5.58 41.59 14.14 43.41 19.37 39.73 19.38 37.6 25.41 45.46 25.4 46.49 28.44 55.92 28.45 48.11 5.58 44.63 5.58"/></svg>